{"title":"Step.Up.3.2010.DvDRip.H264..vice","uid":5993976,"size":739701577,"categoryP":"video","categoryS":"movies","magnet":"?xt=urn:btih:d1949f799812630224836bbe751bffe408367767&amp;dn=Step.Up.3.2010.DvDRip.H264..vice&amp;tr=udp%3A%2F%2Ftracker.openbittorrent.com%3A80&amp;tr=udp%3A%2F%2Fopen.demonii.com%3A1337&amp;tr=udp%3A%2F%2Ftracker.coppersurfer.tk%3A6969&amp;tr=udp%3A%2F%2Fexodus.desync.com%3A6969","seeders":1,"leechers":0,"uploader":"vicerock","files":-1,"time":1290978345,"description":"Format : AVI\nFormat/Info : Audio Video Interleave\nFile size : 696 MiB\nDuration : 1h 47mn\nOverall bit rate : 908 Kbps\nWriting application : MEncoder SVN-r29352(20090610-gcc4.3.3)\nWriting library : MPlayer\n\nVideo\nID : 0\nFormat : AVC\nFormat/Info : Advanced Video Codec\nFormat profile : &lt;a class=&quot;__cf_email__&quot; href=&quot;/cdn-cgi/l/email-protection&quot; data-cfemail=&quot;c785a6b4a2abaea9a2878bf5e9f6&quot;&gt;[email&amp;#160;protected]&lt;/a&gt;&lt;script cf-hash='f9e31' type=&quot;text/javascript&quot;&gt;\n/* &lt;![CDATA[ */!function(){try{var t=&quot;currentScript&quot;in document?document.currentScript:function(){for(var t=document.getElementsByTagName(&quot;script&quot;),e=t.length;e--;)if(t[e].getAttribute(&quot;cf-hash&quot;))return t[e]}();if(t&amp;&amp;t.previousSibling){var e,r,n,i,c=t.previousSibling,a=c.getAttribute(&quot;data-cfemail&quot;);if(a){for(e=&quot;&quot;,r=parseInt(a.substr(0,2),16),n=2;a.length-n;n+=2)i=parseInt(a.substr(n,2),16)^r,e+=String.fromCharCode(i);e=document.createTextNode(e),c.parentNode.replaceChild(e,c)}}}catch(u){}}();/* ]]&gt; */&lt;/script&gt;\nFormat settings, CABAC : No\nFormat settings, ReFrames : 1 frame\nCodec ID : avc1\nDuration : 1h 47mn\nBit rate : 768 Kbps\nWidth : 640 pixels\nHeight : 360 pixels\nDisplay aspect ratio : 16:9\nFrame rate : 25.000 fps\nResolution : 24 bits\nColorimetry : 4:2:0\nScan type : Progressive\nBits/(Pixel*Frame) : 0.133\nStream size : 589 MiB (85%)\nWriting library : x264 core 67 r1163+17 7d945df\n\nAudio\nID : 1\nFormat : MPEG Audio\nFormat version : Version 1\nFormat profile : Layer 3\nCodec ID : 55\nCodec ID/Hint : MP3\nDuration : 1h 47mn\nBit rate mode : Constant\nBit rate : 128 Kbps\nChannel(s) : 2 channels\nSampling rate : 44.1 KHz\nResolution : 16 bits\nStream size : 98.1 MiB (14%)\nAlignment : Aligned on interleaves\nInterleave, duration : 26 ms (0.65 video frame)\nInterleave, preload duration : 522 ms\nWriting library : LAME3.98\n\nStarring\nRick Malambri\nAdam Sevani\nSharni Vinson\nAlyson Stoner\n\nThe story begins in traditional video style, as several of the film's characters are recorded and asked a series of questions about why they dance. The film then cuts to Moose (Adam Sevani) and Camille (Alyson Stoner) who are both dancers and attend New York University. Moose is majoring in electrical engineering after promising his mother that he would not dance anymore. At that moment, he saw a pair of Limited Edition Gun Metal Nike Dunks worn by Luke (Rick Malambri). Moose followed the shoes and then accidentally stumbles upon a dance battle, where he beats Kid Darkness from House of Samurai. Luke takes him back to his place, an old warehouse converted into a club. Luke shows Moose the House of Pirates, his dance crew, where he later teams up with them to compete in the World Jam dance contest against their rivals, the House of Samurai dance crew.\n &lt;a href=&quot;\nhttp://www.imdb.com/title/tt1193631/&quot; rel=&quot;nofollow&quot; target=&quot;_NEW&quot;&gt;\nhttp://www.imdb.com/title/tt1193631/&lt;/a&gt;\n\nscreens\n &lt;a href=&quot;\nhttp://img600.imageshack.us/img600/4632/stepup3h264viceavisnaps.jpg&quot; rel=&quot;nofollow&quot; target=&quot;_NEW&quot;&gt;\nhttp://img600.imageshack.us/img600/4632/stepup3h264viceavisnaps.jpg&lt;/a&gt; &lt;a href=&quot;\nhttp://img820.imageshack.us/img820/4632/stepup3h264viceavisnaps.jpg&quot; rel=&quot;nofollow&quot; target=&quot;_NEW&quot;&gt;\nhttp://img820.imageshack.us/img820/4632/stepup3h264viceavisnaps.jpg&lt;/a&gt; &lt;a href=&quot;\nhttp://img826.imageshack.us/img826/4632/stepup3h264viceavisnaps.jpg&quot; rel=&quot;nofollow&quot; target=&quot;_NEW&quot;&gt;\nhttp://img826.imageshack.us/img826/4632/stepup3h264viceavisnaps.jpg&lt;/a&gt; &lt;a href=&quot;\nhttp://img152.imageshack.us/img152/4632/stepup3h264viceavisnaps.jpg&quot; rel=&quot;nofollow&quot; target=&quot;_NEW&quot;&gt;\nhttp://img152.imageshack.us/img152/4632/stepup3h264viceavisnaps.jpg&lt;/a&gt;","torrent":{"xt":"urn:btih:d1949f799812630224836bbe751bffe408367767","amp;dn":"Step.Up.3.2010.DvDRip.H264..vice","amp;tr":["udp%3A%2F%2Ftracker.openbittorrent.com%3A80","udp%3A%2F%2Fopen.demonii.com%3A1337","udp%3A%2F%2Ftracker.coppersurfer.tk%3A6969","udp%3A%2F%2Fexodus.desync.com%3A6969"],"infoHash":"d1949f799812630224836bbe751bffe408367767","infoHashBuffer":{"type":"Buffer","data":[209,148,159,121,152,18,99,2,36,131,107,190,117,27,255,228,8,54,119,103]},"announce":[],"urlList":[]}}